<svg width="1460" height="952" viewBox="0 0 1460 952" fill="none" xmlns="http://www.w3.org/2000/svg">
<path d="M1379.41 16.2C1368.21 25.2 1354.61 34.6 1349.41 37.2C1334.41 44.8 1305.01 54 1295.81 54C1287.81 54 1287.41 53.6 1283.41 44.4C1277.01 29.6 1267.81 21.2 1267.81 30C1267.81 36.8 1256.41 65.4 1250.01 74.8C1242.81 85.4 1234.41 92.2 1221.81 97.8C1210.01 103.2 1204.61 103 1197.61 97C1191.01 91.6 1180.21 88 1169.81 88C1162.81 88 1159.81 86.6 1141.21 75.4L1131.81 69.6L1110.41 77.2C1092.61 83.2 1085.21 84.8 1068.81 85.6L1048.81 86.4L1027.81 108C1012.41 123.8 1003.61 131.2 994.807 135.6C976.807 144.4 953.607 151.8 939.407 153.2C932.407 153.8 917.407 157.6 905.807 161.4C886.607 168 882.407 168.6 855.807 169.6C834.807 170.2 820.607 169.6 804.207 167.2C788.207 164.8 780.607 164.4 778.007 166C772.007 169.2 765.007 168.4 750.607 163C743.407 160.2 734.607 158 731.007 158C719.407 158 699.007 165 655.807 183.6C625.807 196.4 619.207 197.4 598.007 191.2C578.607 185.8 547.207 172.2 535.407 164.4C529.807 160.8 527.207 157.2 524.607 149.2C521.407 138.8 513.207 123 510.207 121.2C509.207 120.6 502.807 122 496.007 124C468.207 132.8 443.807 125.8 443.807 109.4C443.807 95.4 438.407 83.8 426.407 71.6C420.207 65.2 413.607 60 412.007 60C410.407 60 404.407 62.6 398.407 66C391.207 70.2 385.207 72 379.007 72C371.407 72 369.607 72.8 365.007 79C358.607 87.4 350.007 88.4 339.207 82C333.607 78.6 330.407 78.2 320.007 79.2L307.607 80.6L296.807 96.8L286.207 113L289.407 125.8C291.607 134.6 291.807 139.4 290.407 141.6C287.607 146.2 248.207 166 239.407 167.4C233.807 168.2 229.007 167 219.207 162.4C197.007 152 190.807 144 171.207 99.4L166.007 88L156.007 87.6C150.407 87.4 143.807 87.2 141.407 87.2C137.207 87 136.607 88.4 134.807 102L132.807 116.8L120.407 121.6C111.607 124.8 106.807 128 104.407 132C100.207 139.2 94.0069 142 82.4069 142C74.2069 142 72.0069 143 59.0069 154.4C51.2069 161.2 44.2069 167.4 43.4069 168C42.4069 168.6 40.8069 174.6 39.8069 181C36.8069 197.6 30.4069 216.6 22.6069 232.4C15.0069 247.4 14.4069 252.2 18.8069 262.6C20.4069 266.6 21.8069 273 21.8069 276.8C21.8069 282.8 20.4069 285 11.0069 292.4C5.00686 297.2 0.00685863 301.6 0.00685863 302.2C-0.193141 302.8 4.00686 309.4 9.20686 317.2C16.6069 328.2 19.0069 334 21.0069 345.8C24.0069 362.4 30.6069 374.2 44.2069 387.2C51.2069 394 54.6069 395.8 62.8069 396.8C76.0069 398.4 80.6069 402.2 94.0069 422.2C100.207 431.4 108.807 442.8 113.007 447.6L120.807 456.2L137.807 452.2C147.207 449.8 166.607 447 180.807 445.8C205.407 443.6 207.807 443.8 224.807 448C251.607 454.6 254.007 456 269.207 474.2L283.007 490.8L307.007 491C320.007 491.2 334.207 492 338.407 492.8C347.807 494.8 380.607 524 392.607 541.2C400.207 551.8 403.607 554.4 426.207 567C440.007 574.6 457.007 585.8 464.007 591.8C479.607 605 484.207 607 507.207 610.6C517.007 612.2 528.207 615 531.607 617C535.207 618.8 548.607 630.4 561.407 642.8C587.607 668.2 606.407 679.6 631.807 685.2C641.407 687.4 650.407 691.4 661.207 698.4C669.807 703.8 678.607 709 681.007 710C683.407 711 697.207 710.8 712.007 710C758.407 706.8 790.007 712.4 825.807 729.6C842.207 737.6 847.407 741.4 864.007 757.8C874.407 768.4 887.207 782.8 892.207 790C901.407 803 921.007 840.4 926.007 854.8C929.407 864.2 942.007 875.4 951.607 877.8C991.007 886.8 1003.61 891.8 1023.01 906.2C1033.61 914 1037.61 915.6 1048.01 916.8C1054.81 917.6 1064.81 920 1070.21 922L1079.81 925.6L1099.21 918.8C1112.61 914.2 1120.61 912.4 1124.61 913.2C1130.01 914.4 1145.01 921.2 1155.81 927.2C1159.41 929.2 1164.21 929.6 1172.01 928.8C1185.21 927.4 1188.01 928.6 1202.01 942.2C1207.81 947.8 1213.61 951.8 1215.01 951.2C1216.41 950.6 1224.41 944.6 1232.41 937.8L1247.01 925.2L1241.21 905.2C1232.01 872.6 1232.01 868.6 1241.61 843.2C1256.61 803.8 1260.01 799.2 1285.21 783C1292.61 778.2 1298.61 772.8 1300.01 769.4C1304.61 758.6 1309.41 754.4 1320.81 751.8C1326.81 750.4 1331.81 748.2 1331.81 747C1331.81 745.6 1328.41 737.4 1324.01 728.8C1319.41 719.4 1315.81 708.8 1315.21 702.4C1313.41 687.4 1310.21 681.8 1300.81 678.6C1290.21 675 1282.81 667.4 1275.41 652.6C1268.41 638.2 1269.01 631 1277.01 632.6C1280.81 633.2 1283.21 631.8 1287.81 626C1291.21 621.8 1293.81 617.8 1293.81 617C1293.81 616 1288.21 607 1281.41 596.6C1269.21 578.6 1268.61 578 1261.21 578C1253.61 578 1231.01 569.8 1226.21 565.2C1224.61 563.6 1223.01 550.6 1221.81 525.6C1219.81 490.4 1220.01 487.8 1223.81 477.6C1226.01 471.4 1232.81 460.8 1239.21 453.2C1255.41 434 1257.81 430 1260.01 415.6C1261.01 408.8 1265.21 391.8 1269.01 378C1272.81 364.2 1277.21 345.4 1278.81 336.2C1280.61 326.8 1283.61 316.6 1285.61 313.2C1313.01 267.8 1336.81 230.6 1363.21 191C1394.81 144 1404.41 127.2 1413.81 103C1416.41 96.4 1420.81 88.6 1423.61 85.6C1427.41 81.2 1428.41 78.2 1428.21 71.2C1427.61 57.6 1432.61 48.4 1447.01 36C1460.01 24.8 1462.01 22 1456.81 22C1454.21 22 1424.41 10.8 1407.41 3.4L1400.21 -1.96784e-06L1379.41 16.2Z" fill="#E5B13A"/>
</svg>
