<svg width="1428" height="1421" viewBox="0 0 1428 1421" fill="none" xmlns="http://www.w3.org/2000/svg">
<path d="M669.078 0.535002C620.478 4.135 561.078 14.5351 517.078 27.3351C466.078 41.9351 431.078 55.735 386.278 78.935C173.278 188.735 32.0785 391.935 2.67849 630.335C-1.32151 663.935 -0.721514 761.535 3.67849 793.335C13.2785 861.535 26.4785 912.135 50.4785 972.335C74.2785 1032.54 112.278 1097.54 154.278 1150.34C175.878 1177.34 237.278 1238.94 263.678 1260.14C372.078 1346.54 493.078 1398.14 632.078 1416.74C669.078 1421.74 759.678 1421.54 796.078 1416.54C844.278 1409.94 892.678 1398.74 936.478 1384.14C1025.28 1354.54 1119.08 1300.34 1187.08 1239.14C1238.08 1193.34 1276.88 1148.34 1313.68 1092.14C1424.68 923.135 1456.68 708.535 1400.08 513.935C1336.08 293.135 1166.08 114.535 949.078 39.7351C898.278 22.3351 855.878 12.5351 795.078 4.33505C772.878 1.13505 692.278 -1.065 669.078 0.535002Z" fill="#1D1E2C"/>
<path d="M675.678 136.535C641.878 177.135 637.878 182.735 636.678 191.135C635.878 196.135 633.878 228.735 632.078 263.335C630.278 297.935 628.478 333.535 627.878 342.335C627.478 351.135 625.678 383.535 624.078 414.335C622.478 445.135 619.678 494.135 618.078 523.335C616.478 552.535 613.878 599.535 612.678 627.935C610.278 679.335 610.278 679.535 605.678 680.735C603.078 681.335 598.278 681.335 595.078 680.535L589.078 679.535L588.678 712.935L588.078 746.335L552.078 758.335C532.278 765.135 508.878 774.135 499.878 778.735C442.678 807.935 397.878 864.335 386.278 921.535C382.678 939.735 366.678 1086.94 368.078 1088.94C369.878 1091.34 378.078 1071.74 385.078 1048.34C389.678 1032.94 396.278 1010.94 399.878 999.335L406.278 978.335L412.078 1031.74C417.478 1082.54 417.478 1085.74 414.678 1099.74C403.678 1151.34 389.078 1225.94 389.078 1229.34C389.078 1233.14 390.478 1233.34 441.078 1233.34C501.078 1233.34 495.878 1235.94 488.078 1209.14L482.878 1191.74L490.078 1159.14C493.878 1141.14 498.078 1123.94 499.278 1121.14C500.478 1118.34 513.878 1103.54 529.078 1088.34C552.078 1065.54 557.678 1060.94 561.478 1061.94C564.078 1062.34 577.878 1065.54 592.078 1068.94C647.078 1081.54 647.678 1081.54 699.878 1068.34C715.078 1064.54 728.278 1061.34 729.278 1061.34C730.278 1061.34 731.078 1063.74 731.078 1066.74C731.278 1069.94 732.478 1079.54 734.278 1088.34C739.678 1117.74 742.678 1169.34 740.078 1187.94C738.678 1196.94 736.878 1210.94 736.078 1218.94L734.678 1233.34H784.878H835.078L833.878 1227.94C832.278 1220.94 826.678 1208.74 820.878 1198.74C816.478 1191.54 816.278 1190.74 818.678 1171.74C820.078 1161.14 825.078 1130.14 829.878 1102.94L838.478 1053.34L880.278 1010.94C927.078 963.335 922.678 965.735 947.078 973.135C956.478 976.135 967.478 981.735 980.078 990.335L999.078 1003.14V993.335C999.078 987.735 999.478 983.335 1000.08 983.335C1000.68 983.335 1004.68 985.135 1008.88 987.335C1015.88 990.935 1017.28 992.735 1021.88 1006.74C1034.88 1046.74 1037.08 1069.54 1029.68 1084.34C1023.68 1095.94 1018.48 1099.74 1007.48 1100.94C999.278 1101.74 997.078 1100.94 991.478 1096.34C988.078 1093.34 984.278 1088.14 983.478 1084.74C982.078 1078.94 981.278 1078.34 974.878 1078.94C971.078 1079.34 966.078 1079.94 963.878 1080.34C961.878 1080.74 956.678 1081.14 952.478 1081.14C943.478 1081.34 943.478 1082.34 953.278 1102.54C966.478 1130.54 983.678 1141.94 1012.48 1141.94C1027.08 1141.94 1030.48 1141.14 1041.88 1135.54C1062.28 1125.54 1076.68 1106.34 1084.28 1079.14C1086.08 1073.14 1087.88 1055.74 1088.48 1040.14L1089.68 1012.14L1104.68 1011.54C1145.28 1010.34 1178.48 996.335 1203.28 970.135C1215.68 956.935 1222.88 945.335 1218.68 945.335C1217.08 945.335 1209.68 949.935 1202.08 955.535C1185.48 967.735 1164.88 977.935 1147.08 982.735C1128.48 987.735 1075.28 987.735 1057.08 982.735C1036.48 977.135 1013.08 966.935 998.678 957.535C983.678 947.535 983.478 950.135 1001.28 936.735L1008.28 931.535L1022.28 941.735C1064.48 972.735 1107.48 979.535 1143.88 960.935C1158.28 953.535 1186.68 923.135 1184.68 917.135C1184.28 916.135 1179.08 918.935 1173.08 923.335C1149.68 940.935 1126.68 949.335 1101.48 949.335C1085.68 949.335 1085.48 949.335 1084.68 943.735C1084.08 940.735 1080.48 920.735 1076.48 899.335C1072.68 877.935 1068.88 856.735 1068.08 852.135C1067.28 846.335 1060.28 833.935 1045.48 811.135C1003.88 747.535 1005.88 749.735 985.078 745.535C955.678 739.935 878.478 735.335 873.078 739.135C870.678 740.935 870.678 741.935 873.678 748.335C875.478 752.335 877.078 756.135 877.078 757.135C877.078 757.935 860.878 753.935 840.878 747.935L804.678 737.135L776.478 752.935C760.878 761.735 742.878 771.935 736.278 775.535L724.678 782.335L725.878 803.135C726.478 814.535 727.078 836.735 727.078 852.135V880.335L745.478 894.335C755.678 902.135 779.478 920.335 798.678 934.735C837.878 964.735 840.478 965.735 854.478 955.335L862.678 949.135L870.278 917.335C874.478 899.735 878.478 885.335 879.278 885.335C880.078 885.335 880.878 901.335 881.078 920.935C881.278 961.935 883.678 956.735 856.278 976.135L840.478 987.335L832.078 982.735C827.478 980.135 803.678 963.135 779.278 945.135C754.878 927.135 733.278 911.135 731.078 909.535C727.078 906.935 727.078 907.335 727.078 928.735V950.735L718.878 951.935C704.678 953.735 693.278 964.935 688.278 981.935C687.278 985.135 684.478 985.335 658.678 984.935L630.278 984.335L628.478 977.335C627.478 973.535 625.078 968.135 622.878 965.135C618.278 958.735 604.078 951.335 596.278 951.335H590.678L591.678 876.735C592.478 794.135 593.278 788.535 606.078 762.335C612.878 748.935 613.078 747.335 613.078 725.735V703.335H675.278H737.478L736.478 724.735C735.878 736.735 734.878 748.535 733.878 751.335C732.678 755.535 732.878 755.935 735.278 753.935C738.878 751.135 776.478 729.735 790.678 722.535L801.078 717.335L816.878 721.335C825.678 723.535 834.078 725.935 835.878 726.535C838.478 727.535 838.678 725.135 838.078 708.935C837.478 698.735 837.078 688.335 837.078 685.735C837.078 681.735 836.078 681.335 827.278 681.335H817.278L816.278 670.735C815.678 665.135 813.478 623.335 811.078 578.335C808.678 533.135 805.078 467.135 803.078 431.335C800.878 395.535 797.478 331.135 795.078 288.335C792.878 245.335 790.478 203.935 789.878 196.335L788.878 182.335L751.078 136.735L713.278 91.135L675.678 136.535ZM748.478 174.535L764.678 194.735L767.878 252.535C769.678 284.335 774.278 367.535 778.078 437.335C784.478 553.535 791.078 676.335 791.078 679.735C791.078 680.535 756.078 681.135 713.078 681.135C640.078 681.335 635.078 681.135 635.078 677.935C635.078 675.935 636.478 650.535 638.078 621.335C639.678 592.135 644.278 509.335 648.078 437.335C651.878 365.335 656.478 281.135 658.278 250.335L661.478 194.335L677.678 174.335C686.478 163.335 698.278 149.135 703.678 142.935L713.278 131.535L722.878 142.935C728.078 149.135 739.478 163.335 748.478 174.535ZM991.878 849.735C993.678 852.135 995.078 857.135 995.078 860.735V867.335L987.678 863.735C983.478 861.535 976.478 858.735 972.078 857.335C959.878 853.535 959.678 852.935 969.278 849.135C981.478 844.135 988.278 844.335 991.878 849.735Z" fill="#E5B13A"/>
<path d="M877.278 1041.74C853.878 1066.14 856.678 1058.94 848.078 1114.14L843.278 1145.74L849.078 1172.54C853.078 1190.74 855.078 1204.74 855.078 1216.34V1233.34H902.278H949.478L948.078 1225.94C946.678 1218.14 939.878 1204.34 932.478 1194.14C928.878 1189.34 926.478 1179.34 921.278 1149.14C917.678 1127.74 911.478 1092.34 907.878 1070.34C898.078 1012.74 901.678 1016.34 877.278 1041.74Z" fill="#E5B13A"/>
<path d="M538.878 1107.34C519.478 1127.14 515.278 1132.74 514.278 1138.94C512.678 1149.34 509.078 1203.54 509.078 1219.74V1233.34H554.078C582.478 1233.34 599.078 1232.54 599.078 1231.34C599.078 1230.34 596.478 1220.94 593.078 1210.74C586.678 1190.34 585.678 1175.54 588.878 1141.74C590.278 1126.94 591.478 1123.74 599.878 1109.94C604.878 1101.54 608.878 1094.34 608.278 1093.94C607.678 1093.34 565.478 1083.34 563.278 1083.34C562.678 1083.34 551.878 1094.14 538.878 1107.34Z" fill="#E5B13A"/>
</svg>
